<svg width="20" height="20" viewBox="0 0 20 20" fill="none" xmlns="http://www.w3.org/2000/svg">
<g clip-path="url(#clip0_261_62823)">
<path d="M11.8847 2.99882C10.9962 2.11028 10.5519 1.66602 9.99984 1.66602C9.44777 1.66602 9.0035 2.11028 8.11496 2.99882C7.58177 3.53202 7.0534 3.77956 6.29324 3.77956C5.62951 3.77956 4.68519 3.65084 4.1665 4.17389C3.65192 4.6928 3.78007 5.63323 3.78007 6.29273C3.78007 7.05291 3.5325 7.58128 2.9993 8.11449C2.11077 9.00301 1.66651 9.44727 1.6665 9.99933C1.66652 10.5514 2.11078 10.9957 2.99932 11.8842C3.59663 12.4815 3.78007 12.8672 3.78007 13.7059C3.78007 14.3697 3.65134 15.314 4.17441 15.8327C4.69332 16.3473 5.63374 16.2191 6.29322 16.2191C7.10275 16.2191 7.49257 16.3775 8.07031 16.9552C8.56227 17.4472 9.22175 18.3327 9.99986 18.3327C10.7779 18.3327 11.4374 17.4472 11.9294 16.9552C12.5071 16.3775 12.8969 16.2191 13.7065 16.2191C14.3659 16.2191 15.3064 16.3472 15.8253 15.8327M17.0004 8.11449C17.8889 9.00301 18.3332 9.44727 18.3332 9.99933C18.3332 10.5514 17.8889 10.9957 17.0004 11.8842C16.403 12.4815 16.2196 12.8672 16.2196 13.7059C16.2196 14.3697 16.3483 15.314 15.8253 15.8327M15.8253 15.8327H15.8332" stroke="#191919" stroke-width="1.5" stroke-linecap="round" stroke-linejoin="round"/>
<path d="M6.6665 8.58909C6.6665 8.58909 8.5415 8.33268 9.99984 11.666C9.99984 11.666 14.2155 3.33268 18.3332 1.66602" stroke="#191919" stroke-width="1.5" stroke-linecap="round" stroke-linejoin="round"/>
</g>
<defs>
<clipPath id="clip0_261_62823">
<rect width="20" height="20" fill="white"/>
</clipPath>
</defs>
</svg>
