<svg width="22" height="23" viewBox="0 0 22 23" fill="none" xmlns="http://www.w3.org/2000/svg">
<path d="M1.52625 10.4277L1.68717 13.8245C1.86007 17.4473 1.94653 19.2587 3.16714 20.3695C4.38775 21.4804 6.29168 21.4804 10.0995 21.4804H11.9003C15.7082 21.4804 17.6121 21.4804 18.8327 20.3695C20.0533 19.2587 20.1398 17.4473 20.3127 13.8245L20.4736 10.4277" stroke="CURRENTCOLOR" stroke-width="1.5" stroke-linecap="round" stroke-linejoin="round"/>
<path d="M1.36546 9.84096C3.15419 13.2424 7.18863 14.6377 11 14.6377C14.8114 14.6377 18.8458 13.2424 20.6345 9.84096C21.4884 8.21728 20.8419 5.16406 18.7389 5.16406H3.26106C1.15814 5.16406 0.511608 8.21729 1.36546 9.84096Z" stroke="CURRENTCOLOR" stroke-width="1.5"/>
<path d="M11 10.4277H11.0095" stroke="CURRENTCOLOR" stroke-width="2" stroke-linecap="round" stroke-linejoin="round"/>
<path d="M15.2105 5.16468L15.1175 4.83935C14.6544 3.21825 14.4228 2.4077 13.8714 1.94408C13.3201 1.48047 12.5878 1.48047 11.1231 1.48047H10.8768C9.41216 1.48047 8.67982 1.48047 8.12848 1.94408C7.57714 2.4077 7.34555 3.21825 6.88238 4.83935L6.78943 5.16468" stroke="CURRENTCOLOR" stroke-width="1.5"/>
</svg>
