<svg width="20" height="19" viewBox="0 0 20 19" fill="none" xmlns="http://www.w3.org/2000/svg">
<path d="M12.5001 13.6465C11.8339 14.1651 10.9587 14.4798 10.0001 14.4798C9.04159 14.4798 8.16639 14.1651 7.50012 13.6465" stroke="CURRENTCOLOR" stroke-width="1.5" stroke-linecap="round"/>
<path d="M1.95962 10.491C1.66544 8.57669 1.51834 7.61951 1.88026 6.77096C2.24218 5.92242 3.04515 5.34185 4.65108 4.1807L5.85095 3.31315C7.8487 1.86871 8.84758 1.14648 10.0001 1.14648C11.1527 1.14648 12.1516 1.86871 14.1493 3.31315L15.3492 4.1807C16.9551 5.34185 17.7581 5.92242 18.12 6.77096C18.4819 7.61951 18.3348 8.57669 18.0406 10.491L17.7898 12.1235C17.3727 14.8373 17.1642 16.1941 16.191 17.0036C15.2177 17.8132 13.7948 17.8132 10.9491 17.8132H9.05111C6.2054 17.8132 4.78255 17.8132 3.80929 17.0036C2.83604 16.1941 2.62752 14.8373 2.21048 12.1235L1.95962 10.491Z" stroke="CURRENTCOLOR" stroke-width="1.5" stroke-linejoin="round"/>
</svg>
