<svg width="20" height="21" viewBox="0 0 20 21" fill="none" xmlns="http://www.w3.org/2000/svg">
<path d="M18.3333 10.4798C18.3333 15.0822 14.6023 18.8132 9.99996 18.8132C5.39759 18.8132 1.66663 15.0822 1.66663 10.4798C1.66663 5.87745 5.39759 2.14648 9.99996 2.14648C14.6023 2.14648 18.3333 5.87745 18.3333 10.4798Z" stroke="CURRENTCOLOR" stroke-width="1.5"/>
<path d="M11.5417 8.91899C11.5417 9.3332 11.8775 9.66899 12.2917 9.66899C12.7059 9.66899 13.0417 9.3332 13.0417 8.91899H11.5417ZM8.25 12.0397C8.25 11.6255 7.91421 11.2897 7.5 11.2897C7.08579 11.2897 6.75 11.6255 6.75 12.0397H8.25ZM10.75 6.3125C10.75 5.89829 10.4142 5.5625 10 5.5625C9.58579 5.5625 9.25 5.89829 9.25 6.3125L10.75 6.3125ZM9.25 14.6458C9.25 15.06 9.58579 15.3958 10 15.3958C10.4142 15.3958 10.75 15.06 10.75 14.6458H9.25ZM10 9.60932C9.21448 9.60932 8.82431 9.48305 8.6464 9.36394C8.53272 9.28784 8.45833 9.18929 8.45833 8.91899H6.95833C6.95833 9.57674 7.19645 10.1984 7.81193 10.6104C8.36319 10.9795 9.11885 11.1093 10 11.1093V9.60932ZM8.45833 8.91899C8.45833 8.75133 8.54945 8.53622 8.82304 8.33561C9.09618 8.13532 9.50986 7.98861 10 7.98861V6.48861C9.22449 6.48861 8.49233 6.71806 7.93605 7.12595C7.38023 7.53352 6.95833 8.1586 6.95833 8.91899H8.45833ZM10 7.98861C10.4901 7.98861 10.9038 8.13532 11.177 8.33561C11.4506 8.53622 11.5417 8.75133 11.5417 8.91899H13.0417C13.0417 8.1586 12.6198 7.53352 12.0639 7.12595C11.5077 6.71806 10.7755 6.48861 10 6.48861V7.98861ZM11.75 12.0397C11.75 12.3554 11.6271 12.5405 11.3833 12.686C11.0941 12.8587 10.6228 12.9701 10 12.9701V14.4701C10.758 14.4701 11.5366 14.3414 12.1522 13.974C12.8133 13.5794 13.25 12.9242 13.25 12.0397H11.75ZM10 12.9701C9.4383 12.9701 8.96344 12.8157 8.65062 12.6055C8.3331 12.392 8.25 12.1778 8.25 12.0397H6.75C6.75 12.8296 7.22654 13.4556 7.81385 13.8504C8.40584 14.2483 9.18098 14.4701 10 14.4701V12.9701ZM10 11.1093C10.7915 11.1093 11.2363 11.2292 11.4671 11.3788C11.6297 11.4842 11.75 11.6411 11.75 12.0397H13.25C13.25 11.2381 12.9536 10.5548 12.2829 10.12C11.6804 9.72951 10.8752 9.60932 10 9.60932V11.1093ZM10.75 7.23861L10.75 6.3125L9.25 6.3125L9.25 7.23861L10.75 7.23861ZM9.25 13.7201V14.6458H10.75V13.7201H9.25Z" fill="CURRENTCOLOR"/>
</svg>
