<svg width="21" height="20" viewBox="0 0 21 20" fill="none" xmlns="http://www.w3.org/2000/svg">
<path d="M11.9779 3.23723C12.5989 2.56442 12.9094 2.22801 13.2393 2.03179C14.0355 1.55831 15.0157 1.54359 15.8251 1.99295C16.1606 2.17918 16.4806 2.50612 17.1207 3.15998C17.7608 3.81385 18.0808 4.14079 18.2631 4.48345C18.703 5.31028 18.6886 6.31168 18.2251 7.12494C18.033 7.46198 17.7037 7.77916 17.0451 8.41352L9.20869 15.9613C7.96057 17.1634 7.3365 17.7645 6.55655 18.0691C5.77661 18.3738 4.91917 18.3513 3.20431 18.3065L2.97099 18.3004C2.44893 18.2867 2.1879 18.2799 2.03616 18.1077C1.88442 17.9355 1.90514 17.6696 1.94657 17.1378L1.96907 16.8491C2.08568 15.3523 2.14398 14.6039 2.43626 13.9312C2.72854 13.2585 3.2327 12.7122 4.24103 11.6198L11.9779 3.23723Z" stroke="#FAFAFA" stroke-width="1.5" stroke-linejoin="round"/>
<path d="M11.083 3.33203L16.9163 9.16537" stroke="#FAFAFA" stroke-width="1.5" stroke-linejoin="round"/>
<path d="M11.9165 18.332L18.5832 18.332" stroke="#FAFAFA" stroke-width="1.5" stroke-linecap="round" stroke-linejoin="round"/>
</svg>
