<svg id="Full_Logo_copy_2" data-name="Full Logo copy 2" xmlns="http://www.w3.org/2000/svg" viewBox="0 0 175.59378 40.04579"><defs><style>.cls-1{fill:#001fff;}.cls-2{fill:#fff;}</style></defs><title>Logo icon plus text 2 - SVG</title><path d="M149.30594,160.82535h-5.25776V157.392a6.39618,6.39618,0,0,1-5.53628,3.64968c-3.55684,0-4.48481-2.47429-4.48481-6.06179v-9.92825h5.25819v9.00072c0,2.28861.55661,3.21614,2.07228,3.21614,1.51523,0,2.69062-1.54676,2.69062-3.83537v-8.38149h5.25776Z" transform="translate(-73.16418 -129.9771)"/><path d="M152.08678,139.144h5.38169v4.08236h-5.38169Zm.06219,5.90764h5.25775v15.77371H152.149Z" transform="translate(-73.16418 -129.9771)"/><path d="M160.31281,139.17465h5.25776v21.6507h-5.25776Z" transform="translate(-73.16418 -129.9771)"/><path d="M179.1472,157.67052a4.8315,4.8315,0,0,1-4.73225,3.37116c-3.866,0-6.89648-3.15482-6.89648-8.2269,0-5.04186,3.03046-7.98035,6.58731-7.98035a5.27124,5.27124,0,0,1,5.04142,3.68121v-9.341h5.25732v21.6507H179.1472Zm-3.24767-.5877c2.04161,0,3.24767-1.51523,3.24767-3.98952,0-2.62975-1.20606-4.3-3.24767-4.3-1.82441,0-2.96915,1.54676-2.96915,4.02149C172.93038,155.4441,174.07512,157.08282,175.89953,157.08282Z" transform="translate(-73.16418 -129.9771)"/><path d="M120.757,160.82535h-5.25732v-21.6507H120.757v9.341a5.27124,5.27124,0,0,1,5.04142-3.68121c3.55685,0,6.58731,2.93849,6.58731,7.98035,0,5.07208-3.03046,8.2269-6.89648,8.2269a4.8315,4.8315,0,0,1-4.73225-3.37116Zm6.21682-8.01057c0-2.47473-1.14474-4.02149-2.96915-4.02149-2.04162,0-3.24767,1.67026-3.24767,4.3,0,2.47429,1.20605,3.98952,3.24767,3.98952C125.82909,157.08282,126.97383,155.4441,126.97383,152.81478Z" transform="translate(-73.16418 -129.9771)"/><path d="M186.47416,150.00022c0-6.61884,4.33023-11.0419,10.73185-11.0419a9.376,9.376,0,0,1,9.65017,7.51571l-5.31994,1.17539c-.68054-2.59778-2.07227-4.20673-4.45372-4.20673-2.99981,0-5.04142,2.53648-5.04142,6.279,0,4.29913,2.07227,6.83561,5.38213,6.83561a4.23229,4.23229,0,0,0,4.36088-3.89668l5.28841,1.23671a9.65761,9.65761,0,0,1-9.71148,7.14434C190.68,161.04168,186.47416,156.86648,186.47416,150.00022Z" transform="translate(-73.16418 -129.9771)"/><path d="M229.74052,160.82535h-5.41278l-1.54676-4.39154H213.6572l-1.57742,4.39154H206.822l8.04122-21.6507h6.95954Zm-8.41346-8.568-3.06111-8.78308-3.12418,8.78308Z" transform="translate(-73.16418 -129.9771)"/><path d="M231.37662,139.17465h8.22691c5.62912,0,9.15443,2.815,9.15443,7.29938,0,4.60875-3.27832,7.51615-8.53608,7.51615h-3.43335v6.83517h-5.41191Zm7.91773,10.63989c2.38145,0,3.89668-1.23759,3.89668-3.217,0-2.01008-1.51523-3.24767-3.89668-3.24767h-2.50582v6.46469Z" transform="translate(-73.16418 -129.9771)"/><rect class="cls-1" width="35.14722" height="40.04579" rx="4.64462"/><rect class="cls-2" x="94.55194" y="147.97098" width="8.02015" height="6.26105" transform="translate(176.49935 -77.43761) rotate(90)"/><rect class="cls-2" x="86.72562" y="147.97098" width="8.02015" height="6.26105" transform="translate(168.67303 -69.61129) rotate(90)"/><rect class="cls-2" x="95.13132" y="157.12668" width="6.86141" height="6.26105" transform="translate(185.65505 -68.28192) rotate(90)"/><rect class="cls-2" x="87.30501" y="157.12668" width="6.86141" height="6.26105" transform="translate(177.82873 -60.45561) rotate(90)"/><path class="cls-2" d="M79.783,136.31209h6.26105a0,0,0,0,1,0,0v18.7995a0,0,0,0,1,0,0h0a6.261,6.261,0,0,1-6.261-6.261V136.31209A0,0,0,0,1,79.783,136.31209Z" transform="translate(92.66294 161.44658) rotate(180)"/><rect class="cls-2" x="79.78303" y="156.81964" width="6.26105" height="6.86103" transform="translate(92.66294 190.52322) rotate(180)"/></svg>