<svg width="36" height="35" viewBox="0 0 36 35" fill="none" xmlns="http://www.w3.org/2000/svg">
<g id="Group">
<path id="Vector" d="M1.3335 17.4997C1.3335 9.64301 1.3335 5.71467 3.7735 3.27301C6.21683 0.833008 10.1435 0.833008 18.0002 0.833008C25.8568 0.833008 29.7852 0.833008 32.2252 3.27301C34.6668 5.71634 34.6668 9.64301 34.6668 17.4997C34.6668 25.3563 34.6668 29.2847 32.2252 31.7247C29.7868 34.1663 25.8568 34.1663 18.0002 34.1663C10.1435 34.1663 6.21516 34.1663 3.7735 31.7247C1.3335 29.2863 1.3335 25.3563 1.3335 17.4997Z" stroke="#A4A4A4" stroke-width="1.5"/>
<path id="Vector_2" d="M14.875 12.2916C14.8751 11.7443 15.0189 11.2067 15.292 10.7324C15.5651 10.2582 15.958 9.86397 16.4313 9.58925C16.9046 9.31453 17.4418 9.16893 17.989 9.16701C18.5363 9.16509 19.0745 9.30693 19.5497 9.57832C20.0249 9.84971 20.4206 10.2411 20.697 10.7135C20.9735 11.1858 21.121 11.7224 21.1249 12.2697C21.1288 12.8169 20.989 13.3556 20.7193 13.8318C20.4496 14.308 20.0596 14.7051 19.5883 14.9832C18.7967 15.4516 18 16.1632 18 17.0832V19.1666" stroke="#A4A4A4" stroke-width="1.5" stroke-linecap="round"/>
<path id="Vector_3" d="M18.0002 25.8333C18.9206 25.8333 19.6668 25.0871 19.6668 24.1667C19.6668 23.2462 18.9206 22.5 18.0002 22.5C17.0797 22.5 16.3335 23.2462 16.3335 24.1667C16.3335 25.0871 17.0797 25.8333 18.0002 25.8333Z" fill="#A4A4A4"/>
</g>
</svg>
