<svg width="93" height="92" viewBox="0 0 93 92" fill="none" xmlns="http://www.w3.org/2000/svg">
<rect x="0.75" width="91.5" height="91.5" rx="45.75" fill="#E2E8F0"/>
<path d="M64.556 30.3854C64.8162 30.1199 65.1267 29.909 65.4694 29.765C65.8122 29.621 66.1801 29.5469 66.5519 29.5469C66.9236 29.5469 67.2916 29.621 67.6343 29.765C67.977 29.909 68.2875 30.1199 68.5477 30.3854C69.6381 31.4872 69.6533 33.2676 68.5858 34.3885L46.0425 61.0379C45.7866 61.3189 45.476 61.5448 45.1297 61.7017C44.7835 61.8586 44.4088 61.9432 44.0288 61.9504C43.6487 61.9575 43.2712 61.887 42.9193 61.7432C42.5674 61.5994 42.2485 61.3854 41.9822 61.1141L28.2648 47.2137C27.7358 46.6742 27.4395 45.9487 27.4395 45.1931C27.4395 44.4375 27.7358 43.712 28.2648 43.1725C28.525 42.907 28.8356 42.6961 29.1783 42.5521C29.521 42.4082 29.889 42.334 30.2607 42.334C30.6324 42.334 31.0004 42.4082 31.3431 42.5521C31.6858 42.6961 31.9963 42.907 32.2565 43.1725L43.8923 54.9646L64.4798 30.4692C64.5035 30.4398 64.5289 30.4118 64.556 30.3854Z" fill="#212529"/>
</svg>
