<svg width="143" height="157" viewBox="0 0 143 157" fill="none" xmlns="http://www.w3.org/2000/svg">
<path fill-rule="evenodd" clip-rule="evenodd" d="M26.5008 18.7815L29.727 19.2967L33.0488 20.2341L99.271 44.3089L102.169 45.4913L104.951 46.9924L107.596 48.7792L110.083 50.8196L112.389 53.0828L114.492 55.5384L116.37 58.157L117.998 60.9091L119.352 63.766L120.407 66.6988L121.135 69.6787L121.508 72.6768L122.687 138.065L122.688 138.067L122.29 141.244L121.508 144.182L120.361 146.856L118.869 149.24L117.054 151.303L114.937 153.018L112.54 154.354L109.888 155.279L107.005 155.763L103.918 155.773L100.654 155.279L27.486 139.677L23.911 138.851L20.1504 137.239L16.5555 134.904L13.3378 132.477L10.3991 129.706L7.77806 126.638L5.51199 123.321L3.63669 119.803L2.18636 116.136L1.19331 112.368L0.6875 108.548L0.697332 104.726L6.50804 34.3189L6.97442 31.254L7.88158 28.4887L9.19072 26.0382L10.8634 23.9169L12.862 22.1376L15.1499 20.7125L17.6913 19.6533L20.4521 18.971L23.3991 18.6768L26.5008 18.7815ZM122.687 138.065L121.508 72.6768L122.68 134.677L122.687 138.065Z" fill="url(#paint0_linear_56_1830)" fill-opacity="0.5"/>
<path fill-rule="evenodd" clip-rule="evenodd" d="M21.0975 12.7542L20.6311 15.8191L15.1173 91.7645L15.1074 95.5865L15.6131 99.4061L16.6063 103.175L18.0566 106.842L19.9319 110.359L22.198 113.676L24.819 116.745L27.7577 119.516L30.9754 121.943L34.4327 123.981L38.0893 125.585L41.9042 126.715L120.154 144.438L123.417 144.933L126.505 144.922L129.388 144.439L132.04 143.514L129.399 145.079L127.012 146.41L124.489 147.906L127.011 146.41L127.012 146.41L129.399 145.079L132.04 143.514L134.437 142.178L129.402 145.077L129.4 145.078L129.399 145.079L127.012 146.41L124.489 147.906L119.698 150.665L115.023 153.357L112.66 154.676L110.057 155.602L107.24 156.105L104.234 156.156L101.067 155.723L25.5622 139.767L21.8998 138.737L18.3984 137.251L15.0964 135.346L12.0315 133.064L9.24082 130.449L6.76051 127.544L4.62553 124.395L2.86952 121.048L1.52457 117.549L0.621048 113.946L0.1875 110.285L0.250475 106.612L6.65358 33.2059L7.14923 30.2251L8.06761 27.5244L12.7296 20.8848L14.3868 18.7834L17.8334 14.4372L21.3651 9.98372L24.9831 5.42139L23.3138 7.53844L22.0047 9.98884L21.0975 12.7542Z" fill="url(#paint1_linear_56_1830)"/>
<g filter="url(#filter0_b_56_1830)">
<path fill-rule="evenodd" clip-rule="evenodd" d="M40.6239 0.281503L43.8501 0.796653L47.1719 1.7341L115.574 25.199L118.472 26.3814L121.254 27.8825L123.899 29.6693L126.385 31.7097L128.691 33.9729L130.795 36.4286L132.672 39.0471L134.301 41.7992L135.655 44.6561L136.709 47.5889L137.437 50.5688L137.811 53.5669L142.187 127.225L142.188 127.227L141.79 130.403L141.008 133.341L139.861 136.016L138.369 138.399L136.554 140.463L134.437 142.178L132.04 143.513L129.388 144.439L126.505 144.922L123.418 144.932L120.154 144.438L41.9059 126.715L38.3309 125.889L34.5703 124.277L30.9755 121.943L27.7577 119.516L24.819 116.744L22.198 113.676L19.9319 110.359L18.0566 106.842L16.6063 103.174L15.6132 99.4063L15.1074 95.5863L15.1173 91.7644L20.6311 15.8189L21.0975 12.754L22.0047 9.98865L23.3138 7.53825L24.9865 5.41686L26.9851 3.63755L29.273 2.21251L31.8144 1.15329L34.5752 0.471033L37.5222 0.176758L40.6239 0.281503ZM142.187 127.225L137.811 53.5669L142.18 123.836L142.187 127.225Z" fill="url(#paint2_linear_56_1830)" fill-opacity="0.3"/>
<path d="M141.686 127.21L141.298 130.307L140.534 133.178L139.417 135.783L137.967 138.099L136.206 140.101L134.156 141.762L131.835 143.056L129.264 143.952L126.462 144.422L123.454 144.432L120.246 143.946L42.0185 126.228L42.0163 126.228L38.4869 125.412L34.8067 123.835L31.2625 121.533L28.0807 119.133L25.1817 116.399L22.5956 113.372L20.3602 110.1L18.5111 106.632L17.0822 103.018L16.1048 99.3094L15.6075 95.554L15.6172 91.7831L21.1284 15.8747L21.5856 12.8704L22.4662 10.1859L23.7339 7.81299L25.3519 5.76103L27.2857 4.03939L29.5028 2.65839L31.9715 1.62952L34.6604 0.965007L37.5387 0.677599L40.5759 0.780165L43.7424 1.28579L47.0228 2.21154L115.398 25.6673L118.258 26.8342L120.995 28.3108L123.6 30.0705L126.051 32.0822L128.326 34.3146L130.401 36.7374L132.253 39.3206L133.859 42.0341L135.193 44.8482L136.23 47.7332L136.945 50.6593L137.312 53.6126L141.686 127.21Z" stroke="url(#paint3_linear_56_1830)"/>
</g>
<g filter="url(#filter1_d_56_1830)">
<path fill-rule="evenodd" clip-rule="evenodd" d="M47.8819 60.4974L50.956 57.2061L47.3123 61.1083L47.8819 60.4974ZM122.049 63.1941L80.6774 93.8455L80.6737 93.8482L79.9454 94.2986L79.1586 94.6208L78.3248 94.8168L77.4556 94.8889L76.5627 94.8394L75.6579 94.6707L74.7533 94.3854L73.8608 93.9861L72.9928 93.4757L71.7034 95.1375L70.414 96.7992L71.2967 97.1903L72.1921 97.4686L73.0882 97.6315L73.9733 97.6763L74.8353 97.6011L75.6629 97.4034L76.4445 97.081L77.1689 96.6319L118.409 66.0567L118.411 66.0552L122.049 63.1941ZM50.3839 57.8197L47.3123 61.1083L46.8568 61.7998L46.5166 62.5605L46.2931 63.379L46.1875 64.2436L46.2009 65.1424L46.3344 66.0636L46.5888 66.9951L46.9651 67.9245L47.4637 68.8395L48.0852 69.7278L67.252 94.1644L67.9629 94.9775L68.735 95.6898L69.5561 96.2981L70.414 96.7992L71.7034 95.1375L72.9928 93.4757L72.1615 92.8572L71.379 92.1338L70.6578 91.3089L51.2021 66.5276L50.5709 65.6271L50.0635 64.7004L49.6796 63.7598L49.4187 62.8179L49.2799 61.8869L49.2624 60.9792L49.3652 60.1067L49.5872 59.2815L49.9272 58.5153L50.3839 57.8197ZM50.3839 57.8197L50.956 57.2061L47.3123 61.1083L50.3839 57.8197Z" fill="url(#paint4_linear_56_1830)"/>
<path fill-rule="evenodd" clip-rule="evenodd" d="M121.711 54.6279L122.261 55.4149L122.718 56.2213L123.081 57.0374L123.35 57.8536L123.525 58.6601L123.606 59.4471L123.59 60.2046L123.478 60.9227L123.269 61.591L122.962 62.1993L122.555 62.7372L122.049 63.194L80.6765 93.8462L80.6738 93.8482L79.9454 94.2986L79.1587 94.6207L78.3249 94.8168L77.4557 94.8889L76.5627 94.8394L75.658 94.6707L74.7533 94.3854L73.8609 93.9861L72.9929 93.4757L72.1615 92.8572L75.9871 77.5095L113.313 51.8351L113.912 51.5015L114.563 51.2834L115.255 51.1768L115.978 51.1777L116.722 51.2825L117.478 51.4874L118.235 51.7888L118.984 52.1834L119.716 52.6677L120.42 53.2386L121.089 53.893L121.711 54.6279ZM49.3654 60.1063L49.5873 59.2815L49.9271 58.5156L52.4164 56.2819L55.9263 55.923L56.8472 56.1271L57.7619 56.4409L58.6587 56.8611L59.5263 57.384L60.3532 58.0064L61.1279 58.7253L61.839 59.5376L75.9871 77.5095L72.1615 92.8572L71.3791 92.1338L70.6579 91.3089L51.2021 66.5275L50.5709 65.6271L50.0635 64.7004L49.6797 63.7598L49.4187 62.8178L49.2799 61.8869L49.2625 60.9791L49.3654 60.1063ZM55.9263 55.923L55.0109 55.8325L54.113 55.8595L53.244 56.0079L52.4164 56.2819L55.9263 55.923ZM52.4164 56.2819L51.6424 56.6857L50.9562 57.206L50.3839 57.8196L49.9271 58.5156L52.4164 56.2819Z" fill="url(#paint5_linear_56_1830)"/>
</g>
<defs>
<filter id="filter0_b_56_1830" x="2.10742" y="-12.8232" width="153.08" height="170.756" filterUnits="userSpaceOnUse" color-interpolation-filters="sRGB">
<feFlood flood-opacity="0" result="BackgroundImageFix"/>
<feGaussianBlur in="BackgroundImageFix" stdDeviation="6.5"/>
<feComposite in2="SourceAlpha" operator="in" result="effect1_backgroundBlur_56_1830"/>
<feBlend mode="normal" in="SourceGraphic" in2="effect1_backgroundBlur_56_1830" result="shape"/>
</filter>
<filter id="filter1_d_56_1830" x="29.4822" y="46.5364" width="103.404" height="72.4856" filterUnits="userSpaceOnUse" color-interpolation-filters="sRGB">
<feFlood flood-opacity="0" result="BackgroundImageFix"/>
<feColorMatrix in="SourceAlpha" type="matrix" values="0 0 0 0 0 0 0 0 0 0 0 0 0 0 0 0 0 0 127 0" result="hardAlpha"/>
<feOffset dx="-3.71229" dy="8.35266"/>
<feGaussianBlur stdDeviation="6.49651"/>
<feComposite in2="hardAlpha" operator="out"/>
<feColorMatrix type="matrix" values="0 0 0 0 0.103333 0 0 0 0 0.4104 0 0 0 0 0.43 0 0 0 0.25 0"/>
<feBlend mode="normal" in2="BackgroundImageFix" result="effect1_dropShadow_56_1830"/>
<feBlend mode="normal" in="SourceGraphic" in2="effect1_dropShadow_56_1830" result="shape"/>
</filter>
<linearGradient id="paint0_linear_56_1830" x1="4.22606" y1="164.381" x2="115.784" y2="28.8076" gradientUnits="userSpaceOnUse">
<stop offset="0.320833" stop-color="#C0EEF1"/>
<stop offset="0.58125" stop-color="#FBBB1B"/>
<stop offset="0.89375" stop-color="#FBBB1B"/>
</linearGradient>
<linearGradient id="paint1_linear_56_1830" x1="-32.7825" y1="25.8495" x2="123.229" y2="181.655" gradientUnits="userSpaceOnUse">
<stop stop-color="#CBF3FF"/>
<stop offset="0.35896" stop-color="#FBBB1B"/>
<stop offset="0.683604" stop-color="#63D31E"/>
<stop offset="1" stop-color="#FBBB1B"/>
</linearGradient>
<linearGradient id="paint2_linear_56_1830" x1="19.146" y1="150.381" x2="130.703" y2="14.8076" gradientUnits="userSpaceOnUse">
<stop offset="0.320833" stop-color="#FBBB1B"/>
<stop offset="0.685417" stop-color="#FBBB1B"/>
<stop offset="0.89375" stop-color="#FBBB1B"/>
</linearGradient>
<linearGradient id="paint3_linear_56_1830" x1="14.8786" y1="130.984" x2="138.328" y2="27.4185" gradientUnits="userSpaceOnUse">
<stop offset="0.180663" stop-color="white" stop-opacity="0.35"/>
<stop offset="0.533255" stop-color="white" stop-opacity="0"/>
</linearGradient>
<linearGradient id="paint4_linear_56_1830" x1="42.6493" y1="27.4201" x2="43.5387" y2="106.901" gradientUnits="userSpaceOnUse">
<stop offset="0.301696" stop-color="#C5E7EE"/>
<stop offset="0.993284" stop-color="#7FB8C0" stop-opacity="0.63"/>
</linearGradient>
<linearGradient id="paint5_linear_56_1830" x1="80.4503" y1="108.303" x2="120.49" y2="37.0239" gradientUnits="userSpaceOnUse">
<stop stop-color="white"/>
<stop offset="0.644664" stop-color="white" stop-opacity="0.57"/>
</linearGradient>
</defs>
</svg>
