<svg width="21" height="20" viewBox="0 0 21 20" fill="none" xmlns="http://www.w3.org/2000/svg">
<path d="M15.75 5.83203C16.3954 5.96585 16.8824 6.18919 17.2737 6.56194C18.25 7.49188 18.25 8.98859 18.25 11.982C18.25 14.9754 18.25 16.4722 17.2737 17.4021C16.2974 18.332 14.726 18.332 11.5833 18.332H9.91667C6.77397 18.332 5.20262 18.332 4.22631 17.4021C3.25 16.4722 3.25 14.9754 3.25 11.982C3.25 8.98859 3.25 7.49188 4.22631 6.56194C4.61765 6.18919 5.10459 5.96585 5.75 5.83203" stroke="#FAFAFA" stroke-width="1.5" stroke-linecap="round"/>
<path d="M10.7711 1.66645L10.75 11.666M10.7711 1.66645C10.6356 1.66084 10.4992 1.70927 10.3778 1.81178C9.62239 2.4494 8.25 4.10673 8.25 4.10673M10.7711 1.66645C10.8926 1.67149 11.0135 1.71998 11.1223 1.81192C11.8776 2.44966 13.25 4.10673 13.25 4.10673" stroke="#FAFAFA" stroke-width="1.5" stroke-linecap="round" stroke-linejoin="round"/>
</svg>
