<svg width="17" height="20" viewBox="0 0 17 20" fill="none" xmlns="http://www.w3.org/2000/svg">
<path d="M13.75 5.83203C14.3954 5.96585 14.8824 6.18919 15.2737 6.56194C16.25 7.49188 16.25 8.98859 16.25 11.982C16.25 14.9754 16.25 16.4722 15.2737 17.4021C14.2974 18.332 12.726 18.332 9.58333 18.332H7.91667C4.77397 18.332 3.20262 18.332 2.22631 17.4021C1.25 16.4722 1.25 14.9754 1.25 11.982C1.25 8.98859 1.25 7.49188 2.22631 6.56194C2.61765 6.18919 3.10459 5.96585 3.75 5.83203" stroke="#FAFAFA" stroke-width="1.5" stroke-linecap="round"/>
<path d="M8.77108 1.66645L8.75 11.666M8.77108 1.66645C8.63555 1.66084 8.49921 1.70927 8.37778 1.81178C7.62239 2.4494 6.25 4.10673 6.25 4.10673M8.77108 1.66645C8.8926 1.67149 9.01346 1.71998 9.12234 1.81192C9.87759 2.44966 11.25 4.10673 11.25 4.10673" stroke="#FAFAFA" stroke-width="1.5" stroke-linecap="round" stroke-linejoin="round"/>
</svg>
