<svg width="65" height="64" viewBox="0 0 65 64" fill="none" xmlns="http://www.w3.org/2000/svg">
<g id="ph:file-video-light">
<path id="Vector" d="M37.295 38.7275C37.0788 38.5924 36.8318 38.5146 36.5772 38.5015C36.3226 38.4884 36.0689 38.5403 35.84 38.6525L29.965 41.53C29.8514 40.6914 29.4377 39.9224 28.8007 39.3653C28.1636 38.8082 27.3463 38.5008 26.5 38.5H12.5C11.5717 38.5 10.6815 38.8688 10.0251 39.5251C9.36875 40.1815 9 41.0717 9 42V52C9 52.9283 9.36875 53.8185 10.0251 54.4749C10.6815 55.1312 11.5717 55.5 12.5 55.5H26.5C27.3833 55.5026 28.235 55.1712 28.8841 54.5721C29.5332 53.973 29.9319 53.1507 30 52.27L35.815 55.3275C36.0431 55.4446 36.2975 55.5013 36.5538 55.4921C36.8101 55.4829 37.0597 55.4082 37.2789 55.275C37.498 55.1418 37.6794 54.9547 37.8056 54.7315C37.9319 54.5083 37.9988 54.2564 38 54V40C38.0001 39.7455 37.9354 39.4952 37.8121 39.2726C37.6888 39.05 37.5108 38.8624 37.295 38.7275ZM26.5 52.5H12.5C12.3674 52.5 12.2402 52.4473 12.1464 52.3536C12.0527 52.2598 12 52.1326 12 52V42C12 41.8674 12.0527 41.7402 12.1464 41.6464C12.2402 41.5527 12.3674 41.5 12.5 41.5H26.5C26.6326 41.5 26.7598 41.5527 26.8536 41.6464C26.9473 41.7402 27 41.8674 27 42V52C27 52.1326 26.9473 52.2598 26.8536 52.3536C26.7598 52.4473 26.6326 52.5 26.5 52.5ZM35 51.5175L30 48.8875V44.8525L35 42.405V51.5175ZM53.56 20.94L39.56 6.94C39.279 6.65862 38.8977 6.50035 38.5 6.5H14.5C13.5717 6.5 12.6815 6.86875 12.0251 7.52513C11.3687 8.1815 11 9.07174 11 10V32C11 32.3978 11.158 32.7794 11.4393 33.0607C11.7206 33.342 12.1022 33.5 12.5 33.5C12.8978 33.5 13.2794 33.342 13.5607 33.0607C13.842 32.7794 14 32.3978 14 32V10C14 9.86739 14.0527 9.74021 14.1464 9.64645C14.2402 9.55268 14.3674 9.5 14.5 9.5H37V22C37 22.3978 37.158 22.7794 37.4393 23.0607C37.7206 23.342 38.1022 23.5 38.5 23.5H51V54C51 54.1326 50.9473 54.2598 50.8536 54.3536C50.7598 54.4473 50.6326 54.5 50.5 54.5H44.5C44.1022 54.5 43.7206 54.658 43.4393 54.9393C43.158 55.2206 43 55.6022 43 56C43 56.3978 43.158 56.7794 43.4393 57.0607C43.7206 57.342 44.1022 57.5 44.5 57.5H50.5C51.4283 57.5 52.3185 57.1312 52.9749 56.4749C53.6312 55.8185 54 54.9283 54 54V22C53.9996 21.6023 53.8414 21.221 53.56 20.94ZM40 11.62L48.88 20.5H40V11.62Z" fill="#D5D5D5"/>
</g>
</svg>
